<!DOCTYPE svg PUBLIC "-//W3C//DTD SVG 20010904//EN"
 "http://www.w3.org/TR/2001/REC-SVG-20010904/DTD/svg10.dtd">
<svg version="1.0" xmlns="http://www.w3.org/2000/svg"
 width="512" height="512" viewBox="0 0 1801.000000 1800.000000"
 preserveAspectRatio="xMidYMid meet">
<rect width="18010" height="18000" fill="#2D3033"/>
<g transform="translate(0.000000,1800.000000) scale(0.100000,-0.100000)"
fill="#EDEDD0" stroke="none">
<path d="M8462 15625 c-90 -8 -220 -21 -290 -30 -70 -8 -149 -18 -177 -21 -73
-8 -338 -52 -420 -69 -505 -107 -764 -184 -1275 -382 -159 -61 -573 -258 -710
-338 -36 -21 -94 -54 -130 -73 -159 -84 -307 -210 -368 -313 -49 -83 -75 -188
-69 -279 5 -87 37 -184 71 -219 l24 -24 77 59 c176 135 467 325 665 436 347
194 840 402 1235 519 210 63 275 80 425 114 585 129 1010 173 1580 162 360 -8
608 -27 855 -68 580 -96 982 -207 1480 -409 462 -187 945 -460 1348 -761 67
-50 68 -51 88 -33 27 25 45 69 64 160 30 145 -21 315 -130 433 -75 82 -262
211 -410 284 -22 11 -51 27 -65 37 -40 28 -451 222 -610 288 -528 219 -1175
400 -1660 463 -497 65 -566 70 -1025 74 -293 3 -457 0 -573 -10z"/>
<path d="M8785 14994 c-443 -23 -850 -73 -1138 -140 -453 -106 -674 -175
-1082 -337 -150 -59 -485 -223 -660 -322 -215 -122 -655 -420 -655 -445 0 -5
26 -19 58 -31 49 -20 75 -23 192 -22 119 0 144 3 211 26 42 14 130 59 195 98
288 176 546 305 899 449 245 100 682 229 960 284 276 54 623 102 835 115 177
11 621 11 785 0 396 -27 879 -115 1285 -234 277 -81 320 -96 510 -175 291
-120 425 -184 668 -321 63 -35 136 -76 164 -91 27 -15 57 -33 66 -41 24 -21
116 -66 182 -89 38 -14 93 -21 180 -25 113 -4 132 -3 200 19 41 13 75 29 75
35 0 17 -99 91 -315 235 -362 240 -787 461 -1130 588 -373 138 -605 207 -978
289 -190 43 -610 102 -852 120 -150 12 -547 20 -655 15z"/>
<path d="M3407 14318 c-26 -83 -46 -190 -68 -353 -17 -125 -20 -187 -16 -375
5 -263 21 -386 83 -664 68 -307 184 -631 296 -831 64 -114 236 -373 296 -445
75 -89 325 -331 437 -421 57 -46 104 -87 105 -91 0 -7 -225 93 -333 148 -107
54 -275 163 -393 255 -57 44 -104 78 -104 74 0 -14 116 -225 162 -294 162
-241 404 -462 693 -633 102 -61 150 -83 427 -199 95 -39 394 -131 588 -179
588 -146 1118 -317 1312 -423 172 -93 287 -171 413 -281 38 -34 83 -72 99 -86
49 -43 185 -211 252 -313 77 -115 170 -291 223 -420 52 -124 138 -391 161
-496 40 -182 60 -433 41 -501 -7 -24 -8 -24 -19 10 -6 19 -31 105 -56 190 -68
233 -120 366 -220 565 -143 282 -265 453 -467 651 -106 103 -164 150 -279 226
-162 107 -226 142 -350 191 -195 78 -351 110 -535 110 -250 1 -475 -65 -696
-203 -121 -76 -274 -205 -263 -222 3 -5 0 -7 -8 -6 -7 2 -12 -3 -10 -10 1 -8
-2 -11 -7 -8 -11 7 -92 -80 -170 -183 -54 -72 -151 -223 -151 -237 0 -3 -9
-18 -20 -33 -29 -42 -137 -282 -181 -405 -81 -224 -141 -494 -177 -801 -9 -78
-9 -558 0 -656 22 -231 98 -581 173 -799 191 -549 444 -970 793 -1323 462
-467 1032 -832 1662 -1064 329 -121 438 -154 850 -255 191 -47 189 -58 -10
-58 -280 0 -518 33 -845 116 -297 76 -533 166 -815 311 -314 161 -497 280
-745 487 -546 454 -1011 1176 -1228 1906 -130 437 -177 827 -155 1288 11 232
79 633 139 822 192 610 505 1080 927 1395 129 95 184 130 277 175 l60 28 -28
11 c-16 6 -32 11 -36 11 -21 0 -362 118 -481 167 -74 30 -158 63 -187 73 l-52
19 -29 -37 c-16 -20 -58 -86 -94 -147 -260 -439 -315 -563 -427 -958 -97 -340
-154 -599 -232 -1057 -52 -304 -101 -773 -135 -1280 -31 -464 30 -1061 140
-1375 155 -445 381 -803 771 -1225 239 -259 480 -464 785 -668 254 -171 362
-232 635 -360 315 -146 566 -235 945 -333 47 -12 114 -30 150 -40 122 -34 476
-97 665 -119 50 -5 165 -19 256 -30 514 -62 1028 -64 1534 -5 72 9 171 20 220
25 97 11 138 17 371 55 346 56 850 196 1159 321 222 89 251 102 403 175 200
96 612 346 612 370 0 5 6 9 13 9 15 0 108 68 252 186 360 293 680 654 917
1032 180 287 290 546 351 822 25 110 35 171 73 445 21 147 24 600 5 805 -6 74
-18 209 -26 300 -50 562 -80 775 -181 1280 -116 584 -221 932 -374 1245 -77
158 -284 513 -319 548 -18 18 -21 18 -97 -13 -193 -79 -332 -130 -505 -185
l-185 -59 108 -65 c453 -271 796 -676 1013 -1196 119 -285 183 -513 230 -818
37 -241 48 -420 42 -667 -7 -240 -14 -312 -58 -550 -72 -394 -172 -697 -345
-1043 -133 -266 -223 -411 -412 -672 -369 -508 -898 -923 -1536 -1205 -457
-202 -987 -320 -1434 -320 -127 0 -163 3 -160 13 3 6 29 17 59 23 121 25 503
128 634 171 382 123 737 277 1015 441 453 265 934 667 1166 972 216 284 400
618 528 953 164 428 249 929 232 1361 -26 652 -225 1267 -552 1705 -300 402
-707 625 -1139 625 -414 -1 -841 -199 -1201 -558 -169 -168 -312 -371 -433
-614 -95 -189 -145 -324 -252 -679 -19 -65 -37 -107 -41 -100 -14 23 -8 206
12 344 21 143 86 396 144 555 92 252 224 493 374 679 121 150 372 369 492 429
25 13 63 35 85 49 105 70 422 199 626 256 52 14 148 44 215 65 66 22 194 58
285 80 300 76 580 155 754 213 131 44 400 159 459 196 17 11 64 39 105 62 237
135 494 375 650 607 50 75 161 280 161 298 0 3 -24 -14 -52 -38 -116 -97 -296
-216 -450 -297 -119 -63 -306 -146 -313 -139 -2 2 33 34 78 70 109 88 399 375
469 463 309 392 486 790 597 1340 92 453 91 815 0 1208 -18 75 -35 137 -39
137 -3 0 -28 -64 -54 -142 -129 -383 -282 -697 -494 -1018 -93 -141 -264 -376
-292 -400 -3 -3 -48 -54 -99 -113 -114 -132 -380 -383 -556 -524 -144 -116
-503 -357 -665 -448 -58 -32 -125 -70 -150 -85 -25 -15 -149 -78 -275 -141
-222 -110 -340 -165 -564 -264 -365 -162 -757 -406 -1096 -682 -109 -90 -424
-393 -506 -488 -132 -153 -286 -375 -429 -615 -89 -151 -289 -544 -291 -571
-1 -22 -73 -162 -85 -166 -6 -2 -32 45 -59 104 -129 294 -220 471 -370 713
-189 307 -360 525 -595 761 -257 258 -599 517 -935 709 -153 88 -478 252 -550
279 -137 51 -664 314 -875 436 -190 110 -518 328 -626 416 -50 41 -125 101
-165 134 -41 32 -150 134 -242 225 -483 473 -856 1064 -1076 1705 -34 98 -63
181 -65 182 -2 2 -10 -20 -19 -49z m3443 -6281 c273 -65 479 -181 653 -366
101 -108 158 -189 206 -293 68 -146 75 -228 28 -313 -42 -75 -169 -110 -250
-69 -18 10 -105 87 -193 173 -173 167 -223 202 -383 265 -230 92 -491 99 -744
20 -88 -28 -220 -95 -289 -147 -70 -53 -162 -113 -206 -136 -53 -27 -95 -26
-158 3 -92 43 -136 110 -137 209 0 52 4 63 46 125 57 83 240 264 325 321 90
60 313 166 402 190 156 43 227 51 415 47 149 -3 198 -8 285 -29z m4795 18
c185 -30 339 -82 468 -159 106 -62 240 -169 300 -239 28 -33 68 -79 88 -101
110 -123 116 -233 19 -335 -39 -40 -57 -51 -103 -62 -43 -9 -66 -9 -94 -1 -42
13 -173 95 -220 139 -42 38 -212 126 -304 157 -313 105 -690 52 -969 -137 -25
-17 -106 -92 -180 -167 -76 -76 -152 -144 -174 -154 -66 -31 -165 -16 -220 32
-30 27 -56 92 -56 143 0 130 117 345 284 517 184 190 427 314 716 365 111 20
331 21 445 2z m-2512 -1171 c242 -62 436 -271 530 -570 47 -149 58 -268 43
-461 -4 -56 -5 -106 -2 -112 11 -16 214 44 315 95 72 35 111 63 167 119 41 40
74 77 74 83 0 6 -27 25 -60 43 -33 17 -60 35 -60 39 0 14 37 40 95 67 52 24
72 28 150 28 82 0 96 -3 151 -32 77 -40 145 -116 181 -203 23 -55 27 -80 28
-162 0 -127 -12 -142 -63 -78 -21 25 -66 74 -102 109 l-64 64 -45 -54 c-89
-107 -246 -254 -315 -294 -126 -72 -309 -136 -464 -161 -62 -9 -103 -21 -113
-32 -9 -9 -50 -83 -92 -164 -115 -223 -259 -448 -372 -582 -43 -50 -63 -66
-99 -76 -37 -10 -52 -10 -76 0 -85 35 -307 357 -490 710 -64 123 -66 125 -105
132 -277 50 -423 101 -575 203 -96 64 -215 177 -279 268 -19 26 -38 47 -42 47
-8 0 -64 -57 -156 -159 -59 -66 -73 -55 -73 57 0 112 26 192 89 276 109 143
310 178 464 79 48 -30 45 -49 -13 -83 -25 -14 -46 -33 -48 -42 -7 -38 122
-145 253 -210 74 -37 204 -83 269 -94 l39 -7 -9 84 c-5 46 -9 140 -8 209 0
106 4 140 28 224 94 335 297 573 549 641 71 19 225 19 300 -1z"/>
<path d="M8899 6606 c-137 -53 -265 -205 -330 -393 -74 -214 -11 -508 196
-911 68 -133 184 -322 207 -336 22 -14 37 5 143 180 149 247 225 421 281 639
39 149 41 314 5 420 -64 189 -162 319 -289 384 -55 28 -162 37 -213 17z"/>
<path d="M4744 14038 c-149 -115 -579 -516 -587 -548 -5 -20 122 -223 173
-274 l29 -30 199 195 c109 107 232 221 275 254 42 33 79 68 82 78 4 11 -3 33
-17 55 -52 79 -108 215 -108 263 0 35 -8 36 -46 7z"/>
<path d="M13175 14023 c-14 -92 -34 -140 -98 -245 -17 -28 -26 -55 -23 -66 3
-10 36 -43 74 -74 37 -30 158 -144 269 -252 149 -145 206 -195 217 -189 28 16
165 211 185 265 8 21 6 31 -9 51 -26 32 -253 256 -304 299 -22 18 -91 77 -154
131 -148 127 -149 127 -157 80z"/>
<path d="M8630 12395 c-497 -38 -745 -74 -1140 -164 -215 -49 -531 -146 -755
-231 -60 -24 -144 -55 -185 -71 -41 -15 -122 -49 -180 -75 -58 -25 -132 -57
-165 -69 -32 -12 -61 -27 -62 -32 -2 -6 31 -25 74 -43 124 -52 375 -166 549
-249 362 -175 839 -475 1025 -645 30 -28 108 -98 173 -156 206 -185 449 -477
632 -760 98 -150 135 -218 279 -508 l111 -222 48 107 c111 249 349 672 421
753 13 14 49 61 80 105 186 262 543 620 820 822 237 172 486 323 765 463 69
34 136 68 150 75 14 7 113 52 220 100 341 152 347 155 327 167 -11 5 -87 39
-170 75 -619 265 -1142 416 -1732 502 -403 58 -955 82 -1285 56z"/>
<path d="M1540 12353 c-74 -44 -228 -170 -334 -272 -349 -339 -589 -761 -700
-1231 -57 -241 -69 -342 -70 -565 0 -155 5 -234 17 -302 36 -195 104 -275 207
-244 84 25 109 96 88 252 -18 139 -15 421 6 559 39 260 133 544 258 779 72
137 173 295 236 371 86 103 237 252 337 333 121 98 118 95 149 142 17 25 26
51 26 78 0 34 -7 46 -44 83 -38 39 -49 44 -87 44 -30 0 -59 -9 -89 -27z"/>
<path d="M16264 12362 c-41 -26 -67 -82 -59 -126 11 -57 39 -90 160 -191 216
-180 336 -311 460 -500 110 -170 168 -278 228 -431 157 -400 200 -690 166
-1124 -14 -168 -5 -206 52 -235 76 -40 160 -12 199 66 46 90 55 157 54 444 0
286 -2 306 -60 564 -79 351 -253 717 -469 986 -183 227 -329 367 -542 515 -75
52 -139 63 -189 32z"/>
<path d="M3270 12307 c0 -9 -29 -65 -65 -122 -36 -58 -65 -108 -65 -111 0 -4
-31 -63 -69 -133 -38 -69 -80 -153 -94 -186 -14 -33 -51 -114 -82 -180 -31
-66 -67 -149 -80 -185 -13 -36 -33 -90 -45 -120 -65 -163 -141 -393 -165 -495
-3 -16 -12 -43 -20 -60 -7 -16 -18 -50 -24 -75 -7 -25 -23 -88 -36 -140 -14
-52 -25 -100 -25 -107 0 -8 26 -5 88 9 48 11 140 28 205 37 65 10 120 20 122
23 3 2 25 74 49 159 59 204 81 270 165 489 95 244 195 478 276 637 36 71 65
137 65 145 0 8 -32 82 -70 164 -104 221 -130 271 -130 251z"/>
<path d="M14625 12186 c-33 -72 -77 -162 -97 -200 -21 -38 -38 -77 -38 -87 0
-11 38 -95 84 -187 46 -92 106 -219 134 -282 80 -183 215 -549 272 -740 28
-96 55 -186 59 -200 7 -23 16 -26 137 -47 71 -12 166 -31 212 -41 45 -11 82
-16 82 -13 0 54 -168 601 -251 816 -151 394 -355 822 -485 1020 -21 33 -41 67
-44 76 -3 9 -30 -38 -65 -115z"/>
<path d="M1871 11745 c-66 -38 -157 -114 -247 -207 -275 -284 -440 -622 -510
-1050 -24 -146 -25 -394 -1 -470 22 -72 62 -108 118 -108 45 0 74 13 102 44
41 47 47 79 47 248 0 244 27 387 107 583 126 308 242 468 502 694 105 92 125
156 71 231 -45 63 -116 76 -189 35z"/>
<path d="M15944 11751 c-18 -11 -39 -30 -48 -42 -20 -29 -21 -101 -2 -137 8
-15 78 -87 156 -161 192 -181 293 -319 384 -519 100 -223 143 -420 150 -690 5
-195 15 -229 75 -269 67 -45 149 -22 181 51 36 79 44 171 31 338 -37 478 -214
883 -526 1207 -149 154 -270 241 -336 241 -19 0 -48 -9 -65 -19z"/>
<path d="M3635 10464 c-173 -41 -248 -112 -305 -292 -148 -461 -302 -1245
-415 -2114 -95 -734 -141 -1576 -100 -1811 42 -242 190 -355 450 -345 90 3
109 7 161 33 72 37 118 95 134 167 7 36 9 114 4 243 -5 160 9 710 20 771 2 11
7 64 10 119 22 318 73 717 131 1020 13 72 36 193 51 270 14 77 43 210 64 295
22 85 57 229 80 320 38 158 64 247 145 500 48 151 94 312 105 372 15 76 -5
201 -42 271 -80 150 -294 228 -493 181z"/>
<path d="M14092 10464 c-121 -26 -232 -117 -273 -221 -18 -45 -23 -78 -22
-148 0 -106 15 -167 113 -468 232 -713 406 -1613 465 -2402 8 -115 18 -237 22
-270 3 -33 7 -238 7 -455 l2 -395 26 -56 c53 -116 187 -169 373 -148 189 21
307 137 350 344 20 94 22 309 5 545 -6 85 -17 263 -25 395 -8 132 -20 287 -26
345 -86 861 -234 1757 -385 2340 -124 477 -162 537 -371 591 -87 22 -171 23
-261 3z"/>
<path d="M2895 10154 c-403 -61 -675 -241 -909 -601 -181 -280 -280 -563 -362
-1043 -33 -190 -35 -224 -39 -465 -6 -338 14 -495 96 -789 97 -344 317 -658
556 -792 69 -39 204 -99 246 -109 l27 -7 0 152 c0 506 134 1807 245 2370 8 41
28 156 45 255 50 295 108 562 186 857 24 92 44 172 44 178 0 13 -21 12 -135
-6z"/>
<path d="M14943 10138 c3 -18 19 -80 37 -138 101 -339 263 -1222 334 -1820 95
-791 128 -1180 141 -1644 3 -99 8 -182 10 -185 9 -8 198 68 273 111 39 23 97
64 127 90 110 99 279 331 335 464 151 351 218 787 185 1199 -14 171 -22 224
-60 425 -100 520 -281 906 -556 1182 -203 203 -445 311 -768 343 l-63 6 5 -33z"/>
</g>
</svg>
